<svg xmlns="http://www.w3.org/2000/svg" width="512" height="512" viewBox="0 0 512 512">
  <g transform="translate(50 124) scale(1.88)">
    <path d="M 0,39 C 9.860,30.382 14.397,28 20.952,28 C 24.345,28 38.643,31.598 64.855,39.048 C 77.812,42.731 90.769,46.413 103.726,50.096 C 116.640,46.400 129.555,42.705 142.469,39.009 C 185.092,26.812 189.223,26.123 195.715,30.130 C 200.716,33.216 207,38.936 207,40.401 C 207,42.370 201.845,44.871 163,61.747 C 142.375,70.708 120.947,80.055 115.381,82.519 C 109.815,84.983 104.611,87 103.816,87 C 102.512,87 9.587,46.931 2.823,43.452 C 1.882,42.968 0.941,42.484 0,42 C 0,41 0,40 0,39 Z" fill="#111110"/>
    <path d="M 29.250,107.208 C 55.629,93.152 60.195,90.861 60.740,91.406 C 61.599,92.265 62.040,91.977 42.211,103.459 C 25.466,113.155 20,115.520 20,113.068 C 20,112.556 24.163,109.919 29.250,107.208 Z" fill="#222220"/>
    <path d="M 150.775,93 C 152.839,93 188.884,112.378 188.369,113.211 C 187.163,115.163 182.880,113.390 168.215,104.867 C 152.421,95.688 148.471,93 150.775,93 Z" fill="#222220"/>
    <path d="M 209.084,30.301 C 210.638,26.100 217.089,26.553 218.488,30.961 C 219.831,35.193 215.068,39.177 211.163,37.087 C 208.845,35.847 208.024,33.167 209.084,30.301 Z" fill="#6f6f6a"/>
  </g>
</svg>
