<?xml version="1.0" encoding="UTF-8"?>
<svg xmlns="http://www.w3.org/2000/svg" width="1600" height="166" viewBox="0 0 1600 166">
  <path id="30" d="M 624.250,31.458 C 624.938,31.195 648.225,31.097 676,31.240 C 692.833,31.327 709.667,31.413 726.500,31.500 C 726.597,34.639 726.693,37.777 726.790,40.916 C 727.001,47.775 726.729,50.555 725.790,51.151 C 725.081,51.601 705.938,51.977 683.250,51.985 C 669.500,51.990 655.750,51.995 642,52 C 642,53.500 642,55 642,56.500 C 642,58 642,59.500 642,61 C 655.793,61 669.585,61 683.378,61 C 717.640,61 724.955,61.241 725.918,62.401 C 726.662,63.298 726.976,66.987 726.790,72.651 C 726.693,75.601 726.597,78.550 726.500,81.500 C 712.500,81.667 698.500,81.833 684.500,82 C 670.500,82.167 656.500,82.333 642.500,82.500 C 642.500,84 642.500,85.500 642.500,87 C 642.500,88.500 642.500,90 642.500,91.500 C 656.500,91.667 670.500,91.833 684.500,92 C 698.500,92.167 712.500,92.333 726.500,92.500 C 726.500,95.833 726.500,99.167 726.500,102.500 C 726.500,105.833 726.500,109.167 726.500,112.500 C 709.705,112.586 692.909,112.673 676.114,112.759 C 639.738,112.946 625.348,112.704 624.364,111.887 C 622.443,110.293 622.332,32.193 624.250,31.458 Z" fill="#000000" stroke="none" />
  <path id="30" d="M 510.250,31.458 C 510.938,31.195 534.225,31.097 562,31.240 C 578.833,31.327 595.667,31.413 612.500,31.500 C 612.597,34.639 612.693,37.777 612.790,40.916 C 613.001,47.775 612.729,50.555 611.790,51.151 C 611.081,51.601 591.938,51.977 569.250,51.985 C 555.500,51.990 541.750,51.995 528,52 C 528,53.500 528,55 528,56.500 C 528,58 528,59.500 528,61 C 541.750,61.005 555.500,61.010 569.250,61.015 C 591.938,61.023 611.071,61.392 611.768,61.835 C 612.748,62.457 612.975,68.292 612.768,87.570 C 612.679,95.880 612.589,104.190 612.500,112.500 C 595.705,112.586 578.909,112.673 562.114,112.759 C 525.738,112.946 511.348,112.704 510.364,111.887 C 508.591,110.415 508.455,94.945 510.200,93.200 C 511.095,92.305 521.911,92 552.700,92 C 566.467,92 580.233,92 594,92 C 594,90.333 594,88.667 594,87 C 594,85.333 594,83.667 594,82 C 580.036,82 566.071,82 552.107,82 C 514.829,82 510.147,81.826 509.607,80.418 C 509.273,79.548 509,68.284 509,55.387 C 509,37.549 509.299,31.822 510.250,31.458 Z" fill="#000000" stroke="none" />
  <path id="30" d="M 369.239,31.463 C 369.933,31.197 393.225,31.097 421,31.240 C 437.833,31.327 454.667,31.413 471.500,31.500 C 471.597,34.450 471.693,37.399 471.790,40.349 C 471.976,46.013 471.662,49.702 470.918,50.599 C 469.955,51.759 462.640,52 428.378,52 C 414.585,52 400.793,52 387,52 C 387,53.500 387,55 387,56.500 C 387,58 387,59.500 387,61 C 400.603,61 414.206,61 427.809,61 C 459.179,61 469.018,61.294 470.351,62.268 C 471.815,63.338 472.039,64.933 471.792,72.518 C 471.695,75.512 471.597,78.506 471.500,81.500 C 457.417,81.587 443.333,81.674 429.250,81.761 C 415.167,81.848 401.083,81.935 387,82.022 C 387,83.685 387,85.348 387,87.011 C 387,88.674 387,90.337 387,92 C 400.767,92 414.533,92 428.300,92 C 459.089,92 469.905,92.305 470.800,93.200 C 472.545,94.945 472.409,110.415 470.636,111.887 C 469.652,112.704 455.262,112.946 418.886,112.759 C 402.091,112.673 385.295,112.586 368.500,112.500 C 368.413,99.074 368.326,85.649 368.239,72.223 C 368.033,40.537 368.247,31.843 369.239,31.463 Z" fill="#000000" stroke="none" />
  <path id="30" d="M 0,39 C 9.860,30.382 14.397,28 20.952,28 C 24.345,28 38.643,31.598 64.855,39.048 C 77.812,42.731 90.769,46.413 103.726,50.096 C 116.640,46.400 129.555,42.705 142.469,39.009 C 185.092,26.812 189.223,26.123 195.715,30.130 C 200.716,33.216 207,38.936 207,40.401 C 207,42.370 201.845,44.871 163,61.747 C 142.375,70.708 120.947,80.055 115.381,82.519 C 109.815,84.983 104.611,87 103.816,87 C 102.512,87 9.587,46.931 2.823,43.452 C 1.882,42.968 0.941,42.484 0,42 C 0,41 0,40 0,39 Z" fill="#000000" stroke="none" />
  <path id="30" d="M 1357.500,34 C 1374,34 1390.500,34 1407,34 C 1407,36.500 1407,39 1407,41.500 C 1407,44 1407,46.500 1407,49 C 1393,49 1379,49 1365,49 C 1351,49 1337,49 1323,49 C 1323,51.500 1323,54 1323,56.500 C 1323,59 1323,61.500 1323,64 C 1337,64 1351,64 1365,64 C 1379,64 1393,64 1407,64 C 1407,66.500 1407,69 1407,71.500 C 1407,74 1407,76.500 1407,79 C 1393,79 1379,79 1365,79 C 1351,79 1337,79 1323,79 C 1323,81.667 1323,84.333 1323,87 C 1323,89.667 1323,92.333 1323,95 C 1337,95 1351,95 1365,95 C 1379,95 1393,95 1407,95 C 1407,97.500 1407,100 1407,102.500 C 1407,105 1407,107.500 1407,110 C 1390.500,110 1374,110 1357.500,110 C 1341,110 1324.500,110 1308,110 C 1308,97.333 1308,84.667 1308,72 C 1308,59.333 1308,46.667 1308,34 C 1324.500,34 1341,34 1357.500,34 Z" fill="#000000" stroke="none" />
  <path id="30" d="M 737.200,32.200 C 737.929,31.471 741.473,31 746.231,31 C 748.841,31 751.452,31 754.062,31 C 760.756,36.417 767.449,41.833 774.143,47.250 C 785.188,56.188 800.136,68.275 807.362,74.110 C 811.741,77.647 816.121,81.182 820.500,84.719 C 820.589,76.210 820.678,67.700 820.767,59.191 C 820.947,41.964 821.404,33.218 822.171,32.294 C 823.001,31.294 825.479,31.002 831.362,31.212 C 838.994,31.485 839.452,31.631 840.108,34 C 841.206,37.962 841.130,107.528 840.025,110.435 C 839.091,112.891 838.711,113 831.116,113 C 828.472,113 825.827,113 823.183,113 C 818.736,109.400 814.289,105.799 809.842,102.199 C 802.504,96.258 787.500,84.065 776.500,75.104 C 769.833,69.673 763.167,64.242 756.500,58.811 C 756.333,67.426 756.167,76.040 756,84.655 C 755.725,98.870 755.136,111.062 754.691,111.750 C 753.612,113.417 738.859,113.459 737.200,111.800 C 736.308,110.908 736,100.689 736,72 C 736,43.311 736.308,33.092 737.200,32.200 Z" fill="#000000" stroke="none" />
  <path id="30" d="M 1244.500,34 C 1261,34 1277.500,34 1294,34 C 1294,36.500 1294,39 1294,41.500 C 1294,44 1294,46.500 1294,49 C 1279.833,49 1265.667,49 1251.500,49 C 1237.333,49 1223.167,49 1209,49 C 1209,56.667 1209,64.333 1209,72 C 1209,79.667 1209,87.333 1209,95 C 1220.833,95 1232.667,95 1244.500,95 C 1256.333,95 1268.167,95 1280,95 C 1280,92.333 1280,89.667 1280,87 C 1280,84.333 1280,81.667 1280,79 C 1274.167,79 1268.333,79 1262.500,79 C 1256.667,79 1250.833,79 1245,79 C 1245,76.500 1245,74 1245,71.500 C 1245,69 1245,66.500 1245,64 C 1253.167,64 1261.333,64 1269.500,64 C 1277.667,64 1285.833,64 1294,64 C 1294,71.667 1294,79.333 1294,87 C 1294,94.667 1294,102.333 1294,110 C 1277.500,110 1261,110 1244.500,110 C 1228,110 1211.500,110 1195,110 C 1195,97.333 1195,84.667 1195,72 C 1195,59.333 1195,46.667 1195,34 C 1211.500,34 1228,34 1244.500,34 Z" fill="#000000" stroke="none" />
  <path id="30" d="M 904.500,34 C 921,34 937.500,34 954,34 C 954,36.500 954,39 954,41.500 C 954,44 954,46.500 954,49 C 939.833,49 925.667,49 911.500,49 C 897.333,49 883.167,49 869,49 C 869,51.500 869,54 869,56.500 C 869,59 869,61.500 869,64 C 883.167,64 897.333,64 911.500,64 C 925.667,64 939.833,64 954,64 C 954,66.496 954,68.993 954,71.489 C 954,73.985 954,76.482 954,78.978 C 939.917,79.065 925.833,79.152 911.750,79.239 C 897.667,79.326 883.583,79.413 869.500,79.500 C 869.408,84.583 869.316,89.667 869.224,94.750 C 869.132,99.833 869.040,104.917 868.948,110 C 866.623,110 864.299,110 861.974,110 C 859.649,110 857.325,110 855,110 C 855,97.333 855,84.667 855,72 C 855,59.333 855,46.667 855,34 C 871.500,34 888,34 904.500,34 Z" fill="#000000" stroke="none" />
  <path id="30" d="M 1087.985,34 C 1090.313,34 1092.643,34 1094.971,34 C 1095.059,44.083 1095.147,54.167 1095.235,64.250 C 1095.323,74.333 1095.412,84.417 1095.500,94.500 C 1107.250,94.588 1119,94.675 1130.750,94.763 C 1142.500,94.851 1154.250,94.938 1166,95.026 C 1166,84.855 1166,74.684 1166,64.513 C 1166,54.342 1166,44.171 1166,34 C 1168.333,34 1170.667,34 1173,34 C 1175.333,34 1177.667,34 1180,34 C 1180,46.667 1180,59.333 1180,72 C 1180,84.667 1180,97.333 1180,110 C 1163.500,110 1147,110 1130.500,110 C 1114,110 1097.500,110 1081,110 C 1081,97.333 1081,84.667 1081,72 C 1081,59.333 1081,46.667 1081,34 C 1083.328,34 1085.657,34 1087.985,34 Z" fill="#000000" stroke="none" />
  <path id="30" d="M 1599,83 C 1594.944,92.235 1591.869,96.669 1589.176,99.314 C 1571.978,116.207 1544.694,109.461 1535.951,86.155 C 1532.942,78.135 1533.467,65.785 1537.151,57.880 C 1542.768,45.828 1552.292,39.002 1564.590,38.213 C 1579.956,37.227 1592.568,46 1598.421,61.750 C 1598.947,63.167 1599.474,64.583 1600,66 C 1600,71 1600,76 1600,81 C 1599.667,81.667 1599.333,82.333 1599,83 ZM 1541.339,65.500 C 1539.668,70.545 1540.370,79.787 1542.850,85.394 C 1547.375,95.624 1556.260,101.518 1567,101.414 C 1577.685,101.310 1585.984,95.646 1590.770,85.191 C 1592.831,80.690 1593.151,78.686 1592.847,72.185 C 1592.313,60.764 1588.162,53.560 1579,48.155 C 1575.195,45.910 1573.341,45.503 1567,45.520 C 1558.697,45.542 1554.842,47.021 1549.165,52.362 C 1545.500,55.810 1543.357,59.407 1541.339,65.500 Z" fill="#000000" stroke="none" />
  <path id="30" d="M 1428.985,34 C 1431.313,34 1433.643,34 1435.971,34 C 1436.059,44.083 1436.147,54.167 1436.235,64.250 C 1436.323,74.333 1436.412,84.417 1436.500,94.500 C 1450.583,94.587 1464.667,94.674 1478.750,94.761 C 1492.833,94.848 1506.917,94.935 1521,95.022 C 1521,97.518 1521,100.015 1521,102.511 C 1521,105.007 1521,107.504 1521,110 C 1504.500,110 1488,110 1471.500,110 C 1455,110 1438.500,110 1422,110 C 1422,97.333 1422,84.667 1422,72 C 1422,59.333 1422,46.667 1422,34 C 1424.328,34 1426.657,34 1428.985,34 Z" fill="#000000" stroke="none" />
  <path id="30" d="M 975,34 C 977.333,34 979.667,34 982,34 C 982,44.167 982,54.333 982,64.500 C 982,74.667 982,84.833 982,95 C 996.167,95 1010.333,95 1024.500,95 C 1038.667,95 1052.833,95 1067,95 C 1067,97.500 1067,100 1067,102.500 C 1067,105 1067,107.500 1067,110 C 1050.500,110 1034,110 1017.500,110 C 1001,110 984.500,110 968,110 C 968,97.333 968,84.667 968,72 C 968,59.333 968,46.667 968,34 C 970.333,34 972.667,34 975,34 Z" fill="#000000" stroke="none" />
  <path id="31" d="M 1541.339,65.500 C 1543.357,59.407 1545.500,55.810 1549.165,52.362 C 1554.842,47.021 1558.697,45.542 1567,45.520 C 1573.341,45.503 1575.195,45.910 1579,48.155 C 1588.162,53.560 1592.313,60.764 1592.847,72.185 C 1593.151,78.686 1592.831,80.690 1590.770,85.191 C 1585.984,95.646 1577.685,101.310 1567,101.414 C 1556.260,101.518 1547.375,95.624 1542.850,85.394 C 1540.370,79.787 1539.668,70.545 1541.339,65.500 ZM 1579.481,82.234 C 1577.545,78.365 1575.259,74.930 1574.402,74.601 C 1573.156,74.123 1573.461,73.483 1575.922,71.412 C 1578.492,69.249 1579,68.103 1579,64.467 C 1579,61.306 1578.339,59.342 1576.589,57.306 C 1574.257,54.593 1573.813,54.489 1563.089,54.162 C 1559.393,54.049 1555.696,53.936 1552,53.823 C 1552,60.019 1552,66.216 1552,72.412 C 1552,78.608 1552,84.804 1552,91 C 1553.500,91 1555,91 1556.500,91 C 1558,91 1559.500,91 1561,91 C 1561,88.667 1561,86.333 1561,84 C 1561,77.355 1561.117,77 1563.309,77 C 1566.786,77 1568.676,78.914 1571.454,85.250 C 1572.294,87.167 1573.135,89.083 1573.975,91 C 1575.479,91 1576.983,91 1578.487,91 C 1580.969,91 1583,90.610 1583,90.134 C 1583,89.658 1581.417,86.103 1579.481,82.234 Z" fill="#FFFFFF" stroke="none" />
  <path id="30" d="M 482.327,31.428 C 483.069,31.143 487.237,31.043 491.588,31.205 C 494.225,31.303 496.863,31.402 499.500,31.500 C 499.500,45 499.500,58.500 499.500,72 C 499.500,85.500 499.500,99 499.500,112.500 C 496.500,112.500 493.500,112.500 490.500,112.500 C 487.500,112.500 484.500,112.500 481.500,112.500 C 481.413,99.074 481.326,85.649 481.239,72.223 C 481.024,39.156 481.219,31.853 482.327,31.428 Z" fill="#000000" stroke="none" />
  <path id="30" d="M 309,0 C 309,46.667 309,93.333 309,140 C 307.333,140 305.667,140 304,140 C 302.333,140 300.667,140 299,140 C 299,116.667 299,93.333 299,70 C 299,46.667 299,23.333 299,0 C 302.333,0 305.667,0 309,0 Z" fill="#000000" stroke="none" />
  <path id="30" d="M 1424.593,135.007 C 1428.325,126.402 1432.911,124 1445.612,124 C 1454.061,124 1455.857,124.312 1459.423,126.402 C 1465.461,129.941 1468,135.125 1468,143.918 C 1468,152.323 1466.455,156.597 1462.090,160.270 C 1457.728,163.941 1451.907,165.301 1442.796,164.778 C 1433.524,164.246 1428.251,161.217 1425.035,154.573 C 1422.578,149.497 1422.366,140.142 1424.593,135.007 ZM 1432.161,137.500 C 1431.556,138.600 1431.047,141.907 1431.030,144.850 C 1431.003,149.620 1431.368,150.568 1434.400,153.600 C 1437.634,156.834 1438.150,157 1444.966,157 C 1456.602,157 1459.943,154.145 1459.978,144.173 C 1459.998,138.499 1459.699,137.545 1457.077,134.923 C 1454.310,132.155 1453.711,132.001 1445.827,132.022 C 1437.108,132.045 1434.610,133.047 1432.161,137.500 Z" fill="#000000" stroke="none" />
  <path id="30" d="M 1481.229,124.041 C 1482.986,124.055 1484.743,124.068 1486.500,124.082 C 1490.167,128.818 1493.833,133.555 1497.500,138.291 C 1501.167,143.027 1504.833,147.764 1508.500,152.500 C 1508.593,147.750 1508.684,143 1508.777,138.250 C 1508.870,133.500 1508.962,128.750 1509.055,124 C 1510.386,124 1511.717,124 1513.048,124 C 1514.379,124 1515.710,124 1517.041,124 C 1516.951,130.750 1516.861,137.500 1516.771,144.250 C 1516.681,151 1516.590,157.750 1516.500,164.500 C 1515.014,164.500 1513.528,164.500 1512.042,164.500 C 1510.556,164.500 1509.070,164.500 1507.584,164.500 C 1503.903,159.937 1500.223,155.374 1496.542,150.811 C 1490.469,143.282 1485.162,137.094 1484.750,137.061 C 1484.338,137.028 1484,143.327 1484,151.060 C 1484,155.747 1484,160.434 1484,165.121 C 1482.750,165.018 1481.500,164.913 1480.250,164.810 C 1479,164.707 1477.750,164.603 1476.500,164.500 C 1476.410,157.750 1476.319,151 1476.229,144.250 C 1476.139,137.500 1476.049,130.750 1475.959,124 C 1477.716,124.014 1479.472,124.027 1481.229,124.041 Z" fill="#000000" stroke="none" />
  <path id="30" d="M 1210.546,144.631 C 1215.720,134.253 1220.469,125.141 1221.099,124.381 C 1222.720,122.428 1228.385,122.657 1230.246,124.750 C 1231.892,126.602 1248.249,159.059 1249.462,162.879 C 1250.134,164.997 1249.930,165.106 1245.837,164.812 C 1241.978,164.535 1241.280,164.088 1239.500,160.753 C 1238.833,159.504 1238.167,158.254 1237.500,157.005 C 1233.467,157.004 1229.435,157.004 1225.402,157.003 C 1221.369,157.002 1217.337,157.001 1213.304,157 C 1212.703,158.333 1212.101,159.667 1211.500,161 C 1209.797,164.777 1209.453,165 1205.348,165 C 1202.957,165 1201.031,164.663 1201.069,164.250 C 1201.107,163.837 1205.372,155.009 1210.546,144.631 ZM 1221.617,140.750 C 1219.741,144.462 1218.413,147.837 1218.663,148.250 C 1219.278,149.264 1233.255,149.213 1232.833,148.199 C 1229.712,140.697 1226.391,134 1225.791,134 C 1225.371,134 1223.493,137.038 1221.617,140.750 Z" fill="#000000" stroke="none" />
  <path id="30" d="M 1326.776,143.216 C 1336.947,122.880 1337.725,121.961 1343.549,123.423 C 1345.692,123.961 1347.688,127.286 1356.071,144.281 C 1359.395,151.021 1362.720,157.760 1366.044,164.500 C 1364.552,164.601 1363.061,164.702 1361.569,164.803 C 1357.239,165.096 1357.028,164.975 1355.027,161.053 C 1354.338,159.702 1353.648,158.351 1352.959,157 C 1348.973,157 1344.986,157 1341,157 C 1337.014,157 1333.027,157 1329.041,157 C 1328.361,158.333 1327.680,159.667 1327,161 C 1325.135,164.655 1324.616,165 1320.980,165 C 1318.428,165 1317.023,164.552 1317.065,163.750 C 1317.101,163.062 1321.471,153.822 1326.776,143.216 ZM 1337.274,140.250 C 1335.540,143.688 1334.093,147.062 1334.060,147.750 C 1334.017,148.637 1336.035,149 1341,149 C 1344.850,149 1348,148.612 1348,148.138 C 1348,146.519 1341.982,134 1341.204,134 C 1340.777,134 1339.008,136.812 1337.274,140.250 Z" fill="#000000" stroke="none" />
  <path id="30" d="M 1579.481,82.234 C 1581.417,86.103 1583,89.658 1583,90.134 C 1583,90.610 1580.969,91 1578.487,91 C 1576.983,91 1575.479,91 1573.975,91 C 1573.135,89.083 1572.294,87.167 1571.454,85.250 C 1568.676,78.914 1566.786,77 1563.309,77 C 1561.117,77 1561,77.355 1561,84 C 1561,86.333 1561,88.667 1561,91 C 1559.500,91 1558,91 1556.500,91 C 1555,91 1553.500,91 1552,91 C 1552,84.804 1552,78.608 1552,72.412 C 1552,66.216 1552,60.019 1552,53.823 C 1555.696,53.936 1559.393,54.049 1563.089,54.162 C 1573.813,54.489 1574.257,54.593 1576.589,57.306 C 1578.339,59.342 1579,61.306 1579,64.467 C 1579,68.103 1578.492,69.249 1575.922,71.412 C 1573.461,73.483 1573.156,74.123 1574.402,74.601 C 1575.259,74.930 1577.545,78.365 1579.481,82.234 ZM 1564.250,61.015 C 1561.057,61 1561,61.079 1561,65.557 C 1561,67.076 1561,68.596 1561,70.115 C 1562.417,70.012 1563.833,69.910 1565.250,69.807 C 1569.280,69.515 1569.517,69.324 1569.824,66.105 C 1570.198,62.186 1568.940,61.037 1564.250,61.015 Z" fill="#000000" stroke="none" />
  <path id="30" d="M 1269,166 C 1265.660,161.599 1248.245,127.706 1247.677,124.500 C 1247.580,123.950 1249.300,123.500 1251.500,123.500 C 1252.833,123.500 1254.167,123.500 1255.500,123.500 C 1258.212,128.823 1260.923,134.146 1263.635,139.469 C 1266.346,144.792 1269.058,150.115 1271.769,155.438 C 1274.476,150.032 1277.183,144.625 1279.890,139.219 C 1282.597,133.813 1285.305,128.406 1288.012,123 C 1289.343,123 1290.675,123 1292.006,123 C 1294.203,123 1296,123.433 1296,123.963 C 1296,125.681 1276.982,163.461 1275.468,164.750 C 1274.979,165.167 1274.489,165.583 1274,166 C 1272.333,166 1270.667,166 1269,166 Z" fill="#000000" stroke="none" />
  <path id="30" d="M 1362.667,124.667 C 1363.034,124.300 1371.809,124 1382.167,124 C 1388.445,124 1394.722,124 1401,124 C 1401,125.167 1401,126.333 1401,127.500 C 1401,128.667 1401,129.833 1401,131 C 1398.508,131 1396.016,131 1393.524,131 C 1391.032,131 1388.540,131 1386.048,131 C 1385.957,136.583 1385.865,142.167 1385.774,147.750 C 1385.683,153.333 1385.591,158.917 1385.500,164.500 C 1384.368,164.608 1383.237,164.716 1382.105,164.824 C 1380.063,165.019 1378.375,164.620 1377.870,163.824 C 1377.408,163.096 1377.023,155.413 1377.015,146.750 C 1377.010,141.500 1377.005,136.250 1377,131 C 1374.500,131 1372,131 1369.500,131 C 1367,131 1364.500,131 1362,131 C 1362,130.056 1362,129.111 1362,128.167 C 1362,126.609 1362.300,125.034 1362.667,124.667 Z" fill="#000000" stroke="none" />
  <path id="31" d="M 1432.161,137.500 C 1434.610,133.047 1437.108,132.045 1445.827,132.022 C 1453.711,132.001 1454.310,132.155 1457.077,134.923 C 1459.699,137.545 1459.998,138.499 1459.978,144.173 C 1459.943,154.145 1456.602,157 1444.966,157 C 1438.150,157 1437.634,156.834 1434.400,153.600 C 1431.368,150.568 1431.003,149.620 1431.030,144.850 C 1431.047,141.907 1431.556,138.600 1432.161,137.500 Z" fill="#FFFFFF" stroke="none" />
  <path id="30" d="M 1411,124 C 1412.333,124 1413.667,124 1415,124 C 1415,130.833 1415,137.667 1415,144.500 C 1415,151.333 1415,158.167 1415,165 C 1413.667,165 1412.333,165 1411,165 C 1409.667,165 1408.333,165 1407,165 C 1407,158.167 1407,151.333 1407,144.500 C 1407,137.667 1407,130.833 1407,124 C 1408.333,124 1409.667,124 1411,124 Z" fill="#000000" stroke="none" />
  <path id="30" d="M 1302.667,123.667 C 1303.034,123.300 1304.834,123 1306.667,123 C 1307.778,123 1308.889,123 1310,123 C 1310,130 1310,137 1310,144 C 1310,151 1310,158 1310,165 C 1308.667,165 1307.333,165 1306,165 C 1304.667,165 1303.333,165 1302,165 C 1302,158.222 1302,151.445 1302,144.667 C 1302,133.484 1302.300,124.034 1302.667,123.667 Z" fill="#000000" stroke="none" />
  <path id="30" d="M 1117.044,12 C 1119.392,12 1121.740,12 1124.088,12 C 1123.990,14.417 1123.892,16.833 1123.794,19.250 C 1123.696,21.667 1123.598,24.083 1123.500,26.500 C 1121.250,26.599 1119,26.697 1116.750,26.796 C 1114.500,26.895 1112.250,26.992 1110,27.091 C 1110,24.576 1110,22.061 1110,19.546 C 1110,17.031 1110,14.515 1110,12 C 1112.348,12 1114.696,12 1117.044,12 Z" fill="#000000" stroke="none" />
  <path id="30" d="M 1145,12 C 1147.363,12 1149.725,12 1152.088,12 C 1151.990,14.417 1151.892,16.833 1151.794,19.250 C 1151.696,21.667 1151.598,24.083 1151.500,26.500 C 1149.333,26.500 1147.167,26.500 1145,26.500 C 1142.833,26.500 1140.667,26.500 1138.500,26.500 C 1138.402,24.083 1138.304,21.667 1138.206,19.250 C 1138.108,16.833 1138.010,14.417 1137.912,12 C 1140.275,12 1142.637,12 1145,12 Z" fill="#000000" stroke="none" />
  <path id="31" d="M 1337.274,140.250 C 1339.008,136.812 1340.777,134 1341.204,134 C 1341.982,134 1348,146.519 1348,148.138 C 1348,148.612 1344.850,149 1341,149 C 1336.035,149 1334.017,148.637 1334.060,147.750 C 1334.093,147.062 1335.540,143.688 1337.274,140.250 Z" fill="#FFFFFF" stroke="none" />
  <path id="31" d="M 1221.617,140.750 C 1223.493,137.038 1225.371,134 1225.791,134 C 1226.391,134 1229.712,140.697 1232.833,148.199 C 1233.255,149.213 1219.278,149.264 1218.663,148.250 C 1218.413,147.837 1219.741,144.462 1221.617,140.750 Z" fill="#FFFFFF" stroke="none" />
  <path id="33" d="M 29.250,107.208 C 55.629,93.152 60.195,90.861 60.740,91.406 C 61.599,92.265 62.040,91.977 42.211,103.459 C 25.466,113.155 20,115.520 20,113.068 C 20,112.556 24.163,109.919 29.250,107.208 Z" fill="#151515" stroke="none" />
  <path id="31" d="M 1564.250,61.015 C 1568.940,61.037 1570.198,62.186 1569.824,66.105 C 1569.517,69.324 1569.280,69.515 1565.250,69.807 C 1563.833,69.910 1562.417,70.012 1561,70.115 C 1561,68.596 1561,67.076 1561,65.557 C 1561,61.079 1561.057,61 1564.250,61.015 Z" fill="#FFFFFF" stroke="none" />
  <path id="33" d="M 150.775,93 C 152.839,93 188.884,112.378 188.369,113.211 C 187.163,115.163 182.880,113.390 168.215,104.867 C 152.421,95.688 148.471,93 150.775,93 Z" fill="#151515" stroke="none" />
  <path id="34" d="M 209.084,30.301 C 210.638,26.100 217.089,26.553 218.488,30.961 C 219.831,35.193 215.068,39.177 211.163,37.087 C 208.845,35.847 208.024,33.167 209.084,30.301 Z" fill="#7C7C7C" stroke="none" />
  <path id="31" d="M 1600,83 C 1599.667,83 1599.333,83 1599,83 C 1599.333,82.333 1599.667,81.667 1600,81 C 1600,81.667 1600,82.333 1600,83 Z" fill="#FFFFFF" stroke="none" />
</svg>